<?xml version="1.0" encoding="UTF-8"?>
<!DOCTYPE svg PUBLIC "-//W3C//DTD SVG 1.1//EN" "http://www.w3.org/Graphics/SVG/1.1/DTD/svg11.dtd">
<svg xmlns="http://www.w3.org/2000/svg" version="1.1" width="481px" height="519px" style="shape-rendering:geometricPrecision; text-rendering:geometricPrecision; image-rendering:optimizeQuality; fill-rule:evenodd; clip-rule:evenodd" xmlns:xlink="http://www.w3.org/1999/xlink">
<g><path style="opacity:1" fill="#000000" d="M 161.5,-0.5 C 161.833,-0.5 162.167,-0.5 162.5,-0.5C 162.315,0.170143 161.981,0.170143 161.5,-0.5 Z"/></g>
<g><path style="opacity:1" fill="#000000" d="M 259.5,6.5 C 260.833,7.16667 260.833,7.16667 259.5,6.5 Z"/></g>
<g><path style="opacity:1" fill="#010101" d="M 458.5,159.5 C 459.424,162.447 459.424,165.447 458.5,168.5C 455.998,280.554 412.665,373.387 328.5,447C 314.787,458.381 300.787,469.381 286.5,480C 271.51,489.503 256.177,498.336 240.5,506.5C 158.731,464.564 97.2308,402.564 56,320.5C 30.4906,264.101 19.6573,205.101 23.5,143.5C 23.0711,140.971 22.4045,138.638 21.5,136.5C 21.5,134.833 21.5,133.167 21.5,131.5C 22.1499,131.804 22.8165,132.137 23.5,132.5C 25.3784,118.517 27.2117,104.517 29,90.5C 31.6809,76.7801 34.5142,63.1134 37.5,49.5C 114.147,79.0673 181.48,65.0673 239.5,7.5C 296.526,64.3733 363.026,78.7066 439,50.5C 440.326,50.7549 441.326,51.4216 442,52.5C 444.506,62.1886 446.839,71.8553 449,81.5C 450.058,91.6495 451.724,101.65 454,111.5C 455.24,127.685 456.74,143.685 458.5,159.5 Z"/></g>
<g><path style="opacity:1" fill="#000000" d="M 300.5,7.5 C 301.833,8.16667 301.833,8.16667 300.5,7.5 Z"/></g>
<g><path style="opacity:1" fill="#000000" d="M 120.5,16.5 C 121.833,17.1667 121.833,17.1667 120.5,16.5 Z"/></g>
<g><path style="opacity:1" fill="#000000" d="M 143.5,23.5 C 144.833,24.1667 144.833,24.1667 143.5,23.5 Z"/></g>
<g><path style="opacity:1" fill="#000000" d="M 77.5,29.5 C 78.8333,30.1667 78.8333,30.1667 77.5,29.5 Z"/></g>
<g><path style="opacity:1" fill="#000000" d="M 341.5,35.5 C 342.833,36.1667 342.833,36.1667 341.5,35.5 Z"/></g>
<g><path style="opacity:1" fill="#6c756b" d="M 458.5,159.5 C 456.74,143.685 455.24,127.685 454,111.5C 451.724,101.65 450.058,91.6495 449,81.5C 446.839,71.8553 444.506,62.1886 442,52.5C 441.326,51.4216 440.326,50.7549 439,50.5C 363.026,78.7066 296.526,64.3733 239.5,7.5C 181.48,65.0673 114.147,79.0673 37.5,49.5C 34.5142,63.1134 31.6809,76.7801 29,90.5C 27.2117,104.517 25.3784,118.517 23.5,132.5C 22.8165,132.137 22.1499,131.804 21.5,131.5C 24.1111,103.012 29.4444,75.1785 37.5,48C 51.2202,52.0146 65.0536,55.8479 79,59.5C 130.662,67.9595 177.162,56.1262 218.5,24C 225.345,17.8204 232.178,11.6537 239,5.5C 249.114,13.2761 258.947,21.4428 268.5,30C 309.744,58.5659 355.077,67.8992 404.5,58C 416.206,55.8752 427.539,52.5419 438.5,48C 439.944,47.2195 441.277,47.3861 442.5,48.5C 453.286,84.752 458.619,121.752 458.5,159.5 Z"/></g>
<g><path style="opacity:1" fill="#000000" d="M 473.5,53.5 C 474.833,54.1667 474.833,54.1667 473.5,53.5 Z"/></g>
<g><path style="opacity:1" fill="#000000" d="M 9.5,64.5 C 10.8333,65.1667 10.8333,65.1667 9.5,64.5 Z"/></g>
<g><path style="opacity:1" fill="#f3f3f3" d="M 313.5,105.5 C 315.838,107.04 318.505,107.706 321.5,107.5C 331.19,110.129 341.19,111.462 351.5,111.5C 362.167,111.5 372.833,111.5 383.5,111.5C 390.224,111.244 396.891,111.577 403.5,112.5C 407.558,114.956 409.225,118.623 408.5,123.5C 408.951,130.332 409.617,136.998 410.5,143.5C 410.7,163.514 410.366,183.514 409.5,203.5C 409.249,208.507 408.916,213.507 408.5,218.5C 406.694,223.547 405.694,228.88 405.5,234.5C 390.885,297.235 360.551,351.068 314.5,396C 293.188,415.993 270.188,433.66 245.5,449C 241.833,449.667 238.167,449.667 234.5,449C 176.741,413.572 131.574,366.072 99,306.5C 95.3979,297.037 91.3979,287.703 87,278.5C 82.8352,265.496 78.8352,252.496 75,239.5C 73.1342,232.272 71.9675,224.938 71.5,217.5C 68.9303,194.582 67.9303,171.582 68.5,148.5C 68.5,144.167 68.5,139.833 68.5,135.5C 70.0746,129.726 71.0746,123.726 71.5,117.5C 72.5914,114.572 74.5914,112.406 77.5,111C 82.8613,110.391 88.1946,110.558 93.5,111.5C 99.9914,112.166 106.658,112.5 113.5,112.5C 122.723,112.719 131.723,112.052 140.5,110.5C 144.387,110.354 148.054,109.687 151.5,108.5C 177.842,103.99 202.176,94.4899 224.5,80C 229.397,77.6048 234.397,75.4381 239.5,73.5C 252.83,81.1663 266.496,88.333 280.5,95C 291.297,99.2103 302.297,102.71 313.5,105.5 Z"/></g>
<g><path style="opacity:1" fill="#030303" d="M 276.5,117.5 C 280.502,119.61 284.835,120.943 289.5,121.5C 294.635,123.665 299.968,125.331 305.5,126.5C 307.515,127.924 309.848,128.59 312.5,128.5C 322.074,130.573 331.74,132.239 341.5,133.5C 328.857,141.872 315.857,149.705 302.5,157C 301.167,157.667 299.833,157.667 298.5,157C 289.406,147.191 278.406,140.524 265.5,137C 251.697,134.629 238.03,135.296 224.5,139C 217.4,141.383 210.4,144.049 203.5,147C 174.643,163.259 145.977,179.759 117.5,196.5C 114.686,200.055 115.352,202.721 119.5,204.5C 125.609,201.887 131.943,200.72 138.5,201C 142.036,205.237 145.202,209.737 148,214.5C 151.43,221.858 155.263,229.024 159.5,236C 159.355,236.772 159.022,237.439 158.5,238C 141.458,246.269 124.958,255.436 109,265.5C 108.228,265.355 107.561,265.022 107,264.5C 92.9836,224.006 87.817,182.339 91.5,139.5C 92.4511,138.081 92.7845,136.415 92.5,134.5C 103.346,134.828 114.013,134.494 124.5,133.5C 134.883,132.92 145.217,131.92 155.5,130.5C 159.509,130.142 163.509,129.642 167.5,129C 168.416,128.722 169.082,128.222 169.5,127.5C 194.096,120.966 217.429,111.299 239.5,98.5C 251.209,106.187 263.543,112.521 276.5,117.5 Z"/></g>
<g><path style="opacity:1" fill="#6d6d6d" d="M 313.5,105.5 C 316.428,105.565 319.095,106.232 321.5,107.5C 318.505,107.706 315.838,107.04 313.5,105.5 Z"/></g>
<g><path style="opacity:1" fill="#575757" d="M 321.5,107.5 C 331.635,108.683 341.635,110.016 351.5,111.5C 341.19,111.462 331.19,110.129 321.5,107.5 Z"/></g>
<g><path style="opacity:1" fill="#717171" d="M 151.5,108.5 C 148.054,109.687 144.387,110.354 140.5,110.5C 143.876,108.918 147.542,108.251 151.5,108.5 Z"/></g>
<g><path style="opacity:1" fill="#818181" d="M 383.5,111.5 C 389.653,110.347 395.986,110.18 402.5,111C 403.056,111.383 403.389,111.883 403.5,112.5C 396.891,111.577 390.224,111.244 383.5,111.5 Z"/></g>
<g><path style="opacity:1" fill="#999999" d="M 140.5,110.5 C 131.723,112.052 122.723,112.719 113.5,112.5C 106.658,112.5 99.9914,112.166 93.5,111.5C 109.18,111.629 124.847,111.296 140.5,110.5 Z"/></g>
<g><path style="opacity:1" fill="#8d8d8d" d="M 276.5,117.5 C 281.289,117.654 285.622,118.987 289.5,121.5C 284.835,120.943 280.502,119.61 276.5,117.5 Z"/></g>
<g><path style="opacity:1" fill="#4d4d4d" d="M 71.5,117.5 C 71.0746,123.726 70.0746,129.726 68.5,135.5C 68.6352,129.213 69.6352,123.213 71.5,117.5 Z"/></g>
<g><path style="opacity:1" fill="#717171" d="M 305.5,126.5 C 308.152,126.41 310.485,127.076 312.5,128.5C 309.848,128.59 307.515,127.924 305.5,126.5 Z"/></g>
<g><path style="opacity:1" fill="#636363" d="M 169.5,127.5 C 169.082,128.222 168.416,128.722 167.5,129C 163.509,129.642 159.509,130.142 155.5,130.5C 159.911,128.87 164.578,127.87 169.5,127.5 Z"/></g>
<g><path style="opacity:1" fill="#7c7c7c" d="M 124.5,133.5 C 114.013,134.494 103.346,134.828 92.5,134.5C 92.7845,136.415 92.4511,138.081 91.5,139.5C 91.5,137.5 91.5,135.5 91.5,133.5C 102.5,133.5 113.5,133.5 124.5,133.5 Z"/></g>
<g><path style="opacity:1" fill="#979797" d="M 408.5,123.5 C 409.29,124.609 409.79,125.942 410,127.5C 410.499,132.823 410.666,138.156 410.5,143.5C 409.617,136.998 408.951,130.332 408.5,123.5 Z"/></g>
<g><path style="opacity:1" fill="#171717" d="M 349.5,170.5 C 348.213,171.871 347.547,173.705 347.5,176C 347.667,177.833 347.833,179.667 348,181.5C 350.326,181.88 352.159,182.88 353.5,184.5C 351.195,185.989 348.862,187.489 346.5,189C 345.056,189.781 343.723,189.614 342.5,188.5C 344.029,186.293 344.695,183.793 344.5,181C 344.182,174.914 343.182,169.081 341.5,163.5C 341.317,157.107 340.65,150.774 339.5,144.5C 339.866,143.305 340.699,142.639 342,142.5C 351.886,150.722 362.053,158.555 372.5,166C 374.81,166.497 377.143,166.663 379.5,166.5C 379.703,168.39 379.037,169.89 377.5,171C 374.129,172.03 370.962,173.53 368,175.5C 367.5,175.167 367,174.833 366.5,174.5C 367.485,172.902 367.651,171.235 367,169.5C 364.416,166.455 361.25,164.955 357.5,165C 354.93,167.087 352.263,168.92 349.5,170.5 Z"/></g>
<g><path style="opacity:1" fill="#797979" d="M 339.5,144.5 C 340.65,150.774 341.317,157.107 341.5,163.5C 340.549,158.463 339.549,153.297 338.5,148C 338.514,146.615 338.848,145.449 339.5,144.5 Z"/></g>
<g><path style="opacity:1" fill="#e7e7e7" d="M 344.5,152.5 C 348.529,154.85 352.196,157.683 355.5,161C 352.579,163.626 349.246,165.46 345.5,166.5C 345.167,161.833 344.833,157.167 344.5,152.5 Z"/></g>
<g><path style="opacity:1" fill="#4c4c4c" d="M 229.5,160.5 C 219.807,159.616 210.474,160.949 201.5,164.5C 204.403,162.352 207.736,160.852 211.5,160C 217.681,159.181 223.681,159.347 229.5,160.5 Z"/></g>
<g><path style="opacity:1" fill="#040404" d="M 229.5,160.5 C 233.506,160.748 237.339,161.748 241,163.5C 248.695,167.76 255.528,173.093 261.5,179.5C 239.375,191.977 217.209,204.311 195,216.5C 194.228,216.355 193.561,216.022 193,215.5C 186.751,203.998 180.251,192.665 173.5,181.5C 175.994,178.174 178.994,175.34 182.5,173C 187.95,171.142 192.95,168.476 197.5,165C 198.793,164.51 200.127,164.343 201.5,164.5C 210.474,160.949 219.807,159.616 229.5,160.5 Z"/></g>
<g><path style="opacity:1" fill="#1b1b1b" d="M 308.5,164.5 C 320.587,163.086 328.754,168.086 333,179.5C 334.406,186.152 333.073,192.152 329,197.5C 321.273,202.739 313.44,207.739 305.5,212.5C 306.639,209.575 307.139,206.575 307,203.5C 302.828,194.997 297.995,186.83 292.5,179C 290.153,178.666 287.819,178.833 285.5,179.5C 285.281,178.325 285.614,177.325 286.5,176.5C 293.695,171.907 301.028,167.907 308.5,164.5 Z"/></g>
<g><path style="opacity:1" fill="#c3c3c3" d="M 410.5,143.5 C 411.662,160.995 411.829,178.662 411,196.5C 410.814,199.036 410.314,201.369 409.5,203.5C 410.366,183.514 410.7,163.514 410.5,143.5 Z"/></g>
<g><path style="opacity:1" fill="#000000" d="M 467.5,191.5 C 468.833,192.167 468.833,192.167 467.5,191.5 Z"/></g>
<g><path style="opacity:1" fill="#000000" d="M 6.5,196.5 C 7.83333,197.167 7.83333,197.167 6.5,196.5 Z"/></g>
<g><path style="opacity:1" fill="#838383" d="M 68.5,148.5 C 67.9303,171.582 68.9303,194.582 71.5,217.5C 69.7453,210.399 68.5786,203.066 68,195.5C 67.172,179.661 67.3387,163.995 68.5,148.5 Z"/></g>
<g><path style="opacity:1" fill="#687167" d="M 21.5,136.5 C 22.4045,138.638 23.0711,140.971 23.5,143.5C 19.6573,205.101 30.4906,264.101 56,320.5C 97.2308,402.564 158.731,464.564 240.5,506.5C 256.177,498.336 271.51,489.503 286.5,480C 300.787,469.381 314.787,458.381 328.5,447C 412.665,373.387 455.998,280.554 458.5,168.5C 459.949,202.912 455.783,236.912 446,270.5C 436.381,303.045 422.714,333.712 405,362.5C 367.461,418.378 319.961,463.544 262.5,498C 254.906,501.713 247.406,505.547 240,509.5C 225.278,502.225 211.111,494.058 197.5,485C 180.109,472.966 163.442,459.966 147.5,446C 133.413,432.245 119.58,418.078 106,403.5C 88.9301,381.704 73.5967,358.704 60,334.5C 28.7826,272.181 15.9493,206.181 21.5,136.5 Z"/></g>
<g><path style="opacity:1" fill="#171717" d="M 248.5,247.5 C 247.624,247.631 246.957,247.298 246.5,246.5C 249.38,242.73 249.046,239.396 245.5,236.5C 241.791,229.424 237.791,222.424 233.5,215.5C 231.257,214.526 228.924,214.192 226.5,214.5C 226.281,213.325 226.614,212.325 227.5,211.5C 232.993,208.055 238.66,204.888 244.5,202C 251.151,199.993 256.318,201.827 260,207.5C 260.852,211.518 260.352,215.351 258.5,219C 258.759,220.261 259.426,221.261 260.5,222C 266.772,225.739 273.439,226.905 280.5,225.5C 280.5,226.5 280.5,227.5 280.5,228.5C 277.4,230.228 274.067,231.561 270.5,232.5C 266.6,230.583 262.6,228.749 258.5,227C 255.232,225.787 251.899,225.454 248.5,226C 248.043,226.414 247.709,226.914 247.5,227.5C 249.882,230.998 251.882,234.664 253.5,238.5C 255.924,238.192 258.257,238.526 260.5,239.5C 256.076,241.699 252.076,244.366 248.5,247.5 Z"/></g>
<g><path style="opacity:1" fill="#e8e8e8" d="M 242.5,206.5 C 252.777,204.931 256.277,208.931 253,218.5C 251.002,220.663 248.668,222.33 246,223.5C 244.779,222.728 243.779,221.728 243,220.5C 241.38,217.425 239.88,214.258 238.5,211C 239.344,208.993 240.677,207.493 242.5,206.5 Z"/></g>
<g><path style="opacity:1" fill="#7e7e7e" d="M 264.5,189.5 C 266.833,190.833 269.167,192.167 271.5,193.5C 268.946,192.612 266.279,192.279 263.5,192.5C 263.263,191.209 263.596,190.209 264.5,189.5 Z"/></g>
<g><path style="opacity:1" fill="#1a1a1a" d="M 271.5,193.5 C 269.167,192.167 266.833,190.833 264.5,189.5C 268.28,187.56 271.946,185.393 275.5,183C 280.124,182.396 280.624,183.562 277,186.5C 276.333,187.5 276.333,188.5 277,189.5C 281.582,197.666 286.415,205.666 291.5,213.5C 294.086,214.48 296.753,214.813 299.5,214.5C 299.5,215.5 299.5,216.5 299.5,217.5C 293.845,219.661 288.511,222.328 283.5,225.5C 283.284,223.319 284.117,221.653 286,220.5C 286.667,219.167 286.667,217.833 286,216.5C 281.142,208.769 276.309,201.102 271.5,193.5 Z"/></g>
<g><path style="opacity:1" fill="#030303" d="M 324.5,262.5 C 326.31,259.855 327.31,256.855 327.5,253.5C 330.407,241.941 331.073,230.275 329.5,218.5C 330.75,216.846 332.084,215.179 333.5,213.5C 350.184,203.644 366.851,193.477 383.5,183C 385.025,181.991 386.692,181.491 388.5,181.5C 384.472,256.554 356.139,320.887 303.5,374.5C 284.524,393.477 263.858,410.311 241.5,425C 240.5,425.667 239.5,425.667 238.5,425C 199.129,399.297 165.963,367.13 139,328.5C 138.51,327.207 138.343,325.873 138.5,324.5C 149.685,318.407 161.018,312.574 172.5,307C 179.407,301.421 187.074,297.254 195.5,294.5C 195.491,296.308 195.991,297.975 197,299.5C 203.423,308.674 209.09,318.34 214,328.5C 214.808,330.579 214.641,332.579 213.5,334.5C 209.849,338.652 206.016,342.652 202,346.5C 201.635,349.494 202.969,351.494 206,352.5C 230.311,337.933 255.144,324.099 280.5,311C 300.157,299.058 314.823,282.892 324.5,262.5 Z"/></g>
<g><path style="opacity:1" fill="#747474" d="M 349.5,170.5 C 348.431,173.408 348.264,176.408 349,179.5C 350.401,181.192 352.234,181.859 354.5,181.5C 354.737,182.791 354.404,183.791 353.5,184.5C 352.159,182.88 350.326,181.88 348,181.5C 347.833,179.667 347.667,177.833 347.5,176C 347.547,173.705 348.213,171.871 349.5,170.5 Z"/></g>
<g><path style="opacity:1" fill="#f1f1f1" d="M 304.5,169.5 C 315.696,168.191 323.196,172.858 327,183.5C 328.66,192.524 325.16,198.691 316.5,202C 315.365,202.749 314.365,202.583 313.5,201.5C 308.468,193.631 303.635,185.631 299,177.5C 298.405,176.101 298.572,174.768 299.5,173.5C 301.21,172.113 302.877,170.779 304.5,169.5 Z"/></g>
<g><path style="opacity:1" fill="#696969" d="M 333.5,213.5 C 332.084,215.179 330.75,216.846 329.5,218.5C 328.224,217.614 328.224,216.614 329.5,215.5C 330.622,214.37 331.956,213.703 333.5,213.5 Z"/></g>
<g><path style="opacity:1" fill="#141414" d="M 230.5,236.5 C 232.039,241.346 232.706,246.346 232.5,251.5C 227.293,263.107 218.293,267.94 205.5,266C 193.204,257.604 189.37,246.437 194,232.5C 204.894,221.007 216.061,220.674 227.5,231.5C 228.275,233.396 229.275,235.063 230.5,236.5 Z"/></g>
<g><path style="opacity:1" fill="#f2f2f2" d="M 200.5,251.5 C 198.121,246.107 197.121,240.44 197.5,234.5C 199.833,232.076 202.5,229.909 205.5,228C 208.167,227.333 210.833,227.333 213.5,228C 223.373,233.671 227.873,242.171 227,253.5C 223.061,261.042 216.895,263.542 208.5,261C 205.22,258.225 202.554,255.058 200.5,251.5 Z"/></g>
<g><path style="opacity:1" fill="#696969" d="M 408.5,218.5 C 408.143,224.082 407.143,229.415 405.5,234.5C 405.694,228.88 406.694,223.547 408.5,218.5 Z"/></g>
<g><path style="opacity:1" fill="#050505" d="M 293.5,236.5 C 303.103,260.262 298.103,280.762 278.5,298C 272.167,301.667 265.833,305.333 259.5,309C 256.031,310.732 252.364,311.898 248.5,312.5C 248.245,309.984 247.411,307.65 246,305.5C 239.417,295.311 233.417,284.978 228,274.5C 249.884,261.927 271.718,249.26 293.5,236.5 Z"/></g>
<g><path style="opacity:1" fill="#000000" d="M 468.5,241.5 C 469.833,242.167 469.833,242.167 468.5,241.5 Z"/></g>
<g><path style="opacity:1" fill="#5f5f5f" d="M 230.5,236.5 C 231.793,237.842 232.626,239.509 233,241.5C 233.808,245.027 233.641,248.36 232.5,251.5C 232.706,246.346 232.039,241.346 230.5,236.5 Z"/></g>
<g><path style="opacity:1" fill="#999999" d="M 245.5,236.5 C 249.046,239.396 249.38,242.73 246.5,246.5C 246.957,247.298 247.624,247.631 248.5,247.5C 247.432,248.434 246.099,248.768 244.5,248.5C 244.682,246.325 245.349,244.325 246.5,242.5C 245.844,240.547 245.511,238.547 245.5,236.5 Z"/></g>
<g><path style="opacity:1" fill="#858585" d="M 197.5,234.5 C 197.121,240.44 198.121,246.107 200.5,251.5C 198.59,250.025 197.424,248.025 197,245.5C 196.19,241.642 196.357,237.976 197.5,234.5 Z"/></g>
<g><path style="opacity:1" fill="#181818" d="M 163.5,249.5 C 164.5,249.5 165.5,249.5 166.5,249.5C 165.188,252.024 164.688,254.691 165,257.5C 169.635,265.631 174.468,273.631 179.5,281.5C 180.365,282.583 181.365,282.749 182.5,282C 186.084,279.959 189.584,277.792 193,275.5C 193.031,272.464 192.197,269.63 190.5,267C 190.667,265.5 191.5,264.667 193,264.5C 194.767,265.34 196.101,266.673 197,268.5C 197.306,270.906 198.139,273.073 199.5,275C 198.201,276.326 196.868,277.66 195.5,279C 187.904,283.047 180.404,287.214 173,291.5C 172.5,291.167 172,290.833 171.5,290.5C 174.186,285.236 173.352,280.569 169,276.5C 165.961,270.445 162.461,264.612 158.5,259C 156.527,258.505 154.527,258.338 152.5,258.5C 152.281,257.325 152.614,256.325 153.5,255.5C 157.037,253.674 160.37,251.674 163.5,249.5 Z"/></g>
<g><path style="opacity:1" fill="#70706c" d="M 327.5,253.5 C 327.31,256.855 326.31,259.855 324.5,262.5C 324.528,259.084 325.528,256.084 327.5,253.5 Z"/></g>
<g><path style="opacity:1" fill="#1b1b1b" d="M 142.5,261.5 C 144.288,261.215 145.955,261.548 147.5,262.5C 148.766,265.176 149.599,267.843 150,270.5C 147.915,271.647 146.415,270.98 145.5,268.5C 143.926,267.369 142.259,267.202 140.5,268C 136.871,269.97 133.538,272.304 130.5,275C 132.45,279.067 134.783,282.9 137.5,286.5C 139.979,284.924 142.646,283.924 145.5,283.5C 145.167,280.833 144.833,278.167 144.5,275.5C 145.675,275.281 146.675,275.614 147.5,276.5C 149.936,280.894 152.269,285.227 154.5,289.5C 151.72,289.193 149.22,288.193 147,286.5C 144.419,287.417 142.086,288.751 140,290.5C 142.047,294.27 143.88,298.27 145.5,302.5C 147.924,302.192 150.257,302.526 152.5,303.5C 151.5,304.5 150.5,305.5 149.5,306.5C 145.458,308.521 141.458,310.521 137.5,312.5C 137.461,310.641 138.294,309.308 140,308.5C 136.888,298.276 132.055,288.609 125.5,279.5C 123.074,278.832 120.741,278.498 118.5,278.5C 119.305,276.528 120.639,275.028 122.5,274C 128.686,270.332 135.02,266.832 141.5,263.5C 142.298,263.043 142.631,262.376 142.5,261.5 Z"/></g>
<g><path style="opacity:1" fill="#000000" d="M 438.5,295.5 C 439.833,296.167 439.833,296.167 438.5,295.5 Z"/></g>
<g><path style="opacity:1" fill="#000000" d="M 33.5,307.5 C 34.8333,308.167 34.8333,308.167 33.5,307.5 Z"/></g>
<g><path style="opacity:1" fill="#000000" d="M 63.5,367.5 C 64.8333,368.167 64.8333,368.167 63.5,367.5 Z"/></g>
<g><path style="opacity:1" fill="#000000" d="M 454.5,384.5 C 455.833,385.167 455.833,385.167 454.5,384.5 Z"/></g>
<g><path style="opacity:1" fill="#000000" d="M 399.5,385.5 C 400.833,386.167 400.833,386.167 399.5,385.5 Z"/></g>
<g><path style="opacity:1" fill="#000000" d="M 23.5,434.5 C 24.8333,435.167 24.8333,435.167 23.5,434.5 Z"/></g>
<g><path style="opacity:1" fill="#000000" d="M 103.5,450.5 C 104.833,451.167 104.833,451.167 103.5,450.5 Z"/></g>
<g><path style="opacity:1" fill="#000000" d="M 118.5,450.5 C 119.833,451.167 119.833,451.167 118.5,450.5 Z"/></g>
<g><path style="opacity:1" fill="#000000" d="M 53.5,455.5 C 54.8333,456.167 54.8333,456.167 53.5,455.5 Z"/></g>
<g><path style="opacity:1" fill="#000000" d="M 137.5,464.5 C 138.833,465.167 138.833,465.167 137.5,464.5 Z"/></g>
<g><path style="opacity:1" fill="#000000" d="M 300.5,496.5 C 301.833,497.167 301.833,497.167 300.5,496.5 Z"/></g>
<g><path style="opacity:1" fill="#000000" d="M 36.5,511.5 C 37.8333,512.167 37.8333,512.167 36.5,511.5 Z"/></g>
<g><path style="opacity:1" fill="#000000" d="M 314.5,512.5 C 315.833,513.167 315.833,513.167 314.5,512.5 Z"/></g>
</svg>
